# xmcd
#
# Track frame offsets:
#	150
#	8824
#	28253
#	47716
#	66493
#	88826
#	103688
#	118696
#	122044
#	144468
#	163156
#	182149
#	199699
#	219924
#	242648
#	262644
#	269551
#	271405
#
# Disc length: 3961 seconds
#
# Revision: 0
# Processed by: cddbd v1.4PL0 Copyright (c) Steve Scherf et al.
# Submitted via: dBpowerAMP V4.0
#
DISCID=0b0f7712
DTITLE=Missy Elliott - Supa Dupa Fly
DYEAR=1997
DGENRE=Hip-Hop
TTITLE0=Busta's Intro
TTITLE1=Hit 'Em Wit Da Hee
TTITLE2=Sock It 2 Me
TTITLE3=The Rain
TTITLE4=Beep Me 911
TTITLE5=They Don't Wanna F...
TTITLE6=Pass Da Blunt
TTITLE7=Bite Our Style
TTITLE8=Friendly Skies
TTITLE9=Best Friends
TTITLE10=Don't Be Commin
TTITLE11=Izzy Izzy Ahh
TTITLE12=Why You Hurt Me
TTITLE13=I'm Talking
TTITLE14=Gettaway
TTITLE15=Busta's Outro
TTITLE16=Missy's Finale
TTITLE17=Bonus track
EXTD=
EXTT0=
EXTT1=
EXTT2=
EXTT3=
EXTT4=
EXTT5=
EXTT6=
EXTT7=
EXTT8=
EXTT9=
EXTT10=
EXTT11=
EXTT12=
EXTT13=
EXTT14=
EXTT15=
EXTT16=
EXTT17=
PLAYORDER=
